<?xml version='1.0' encoding='utf-8'?>
<svg xmlns="http://www.w3.org/2000/svg" enable-background="new 0 0 361.714 286.67" viewBox="0 0 361.71 286.67"> <path d="m227.596,6.818c-3.052.316-3.465-2.306-5.847-3.341-1.616-.702-4.767-1.47-6.683-1.67-9.351-.977-21.01,3.902-28.398,5.011 2.955-5.256 12.726-3.699 17.958-6.682 8.369-.773 13.861,1.953 21.298,2.925 .376,1.434 1.807,1.813 1.672,3.757z" fill-rule="evenodd"/> <path d="m228.013,10.995h1.254c3.75,3.443 5.926,17.185 1.252,21.299-1.577-.909-.806-3.387-.836-5.011-.1-5.399-.092-12.25-1.67-16.288z" fill-rule="evenodd"/> <path d="m222.167,13.501c-1.48,2.729-7.445,3.124-12.947,2.923-1.96-.071-5.151.865-5.43-1.252 2.989-.854 6.738.138 10.44-.418 2.728-.41 5.49-2.943 7.937-1.253z" fill-rule="evenodd"/> <path d="m223.419,17.677c-.636,3.232-6.519,3.057-10.44,3.341-1.75.127-4.751,1.533-5.012-.834 5.476-.511 9.728-2.246 15.452-2.507z" fill-rule="evenodd"/> <path d="m225.09,21.436c.106,3.615-4.782,3.856-9.188,4.177-4.104.297-8.831.246-11.275-.836 1.076-1.691 3.807-.644 6.264-.834 2.06-.162 4.281-.445 6.266-.836 1.842-.364 3.559-1.458 5.012-1.67 1.147-.169 2.228,1.278 2.921-.001z" fill-rule="evenodd"/> <path d="m226.76,25.613c1.021,3.322-3.433,4.325-7.518,4.593-4.133.271-9.825.409-12.111-.836 .08-1.603 2.245-.671 3.341-.834 2.41-.36 7.12-.845 9.188-2.089 2.923.279 4.751-.54 7.1-.834z" fill-rule="evenodd"/> <path d="m228.431,29.37c.604,1.581-1.147.802-.835,2.089-3.146,2.08-8.039,1.686-12.112,2.088-.659.066-1.439.836-1.253.836-.271,0-.632-.717-1.252-.836-2.273-.434-6.039,1.007-7.518-.834 .372-2.012 2.472-.375 3.759-.418 5.919-.197 15.185-.238 18.376-3.341 .485-.069.743.091.835.416z" fill-rule="evenodd"/> <path d="m223.001,43.153c-.316-6.083 6.49-5.006 5.848-.836-.36,2.331-4.08,3.704-5.848.836zm2.507-.836c1.218.613 1.218-1.868 0-1.252v1.252z" fill-rule="evenodd"/> <path d="m212.561,39.811c.941,3.198-.312,6.637-2.923,6.265-3.266-.466-3.168-7.754 2.923-6.265zm-2.923,3.758h1.252c.117-1.091-.152-1.796-1.252-1.67v1.67z" fill-rule="evenodd"/> <path d="m214.231,54.01c4.454,2.33 10.266-.7 8.771-5.429-.576-1.166-2.54-1.489-5.012-1.252-.737.071-.678.814-.834.836-1.599.215-3.733-.608-5.013.416 .418-4.452 8.374-2.651 12.11-2.505 .36,2.308 1.949,2.265 2.089,4.175 .43,5.881-9.921,11.304-12.111,3.759z" fill-rule="evenodd"/> <path d="m211.308,57.351c-1.126,4.332-7.142,5.907-12.528,4.595-.646-.608-.367-2.138-.419-3.341 1.634-2.692 10.096-3.783 12.947-1.254zm-10.44,2.506c2.532.896 6.257-.349 7.518-2.088-2.782.421-5.911.494-7.518,2.088z" fill-rule="evenodd"/> <path d="m183.328,87.42c-.85,2.49 1.238,3.869 1.67,6.264-7.361-.996-14.355.87-21.717,1.254 .068-.486-.092-.744-.416-.836 1.171-.853.005-2.456 1.252-2.505-.101-1.293-3.438.653-2.923-1.254 .552-2.393 4.209.892 5.429-.834-.998-.952-3.968.07-3.759-2.088 .724-.874 2.253-.047 3.341-.418 .449-.153.291-.758.834-.834 1.913-.27 4.602-.459 6.682-.418 2.914.056 6.469.508 7.936,2.088 .75.052.881-.512 1.671-.419zm-15.87.836c1.037.062 2.027.077 2.088-.836-.744.231-1.735.214-2.088.836zm9.188.417c.746-.002 2.43,1.125 2.923,0-1.057-.114-2.368-1.793-2.923,0zm-5.43.418c.606-.228 2.158.488 2.088-.418-.975-.126-1.799-.891-2.088.418zm5.43.836c-.291-.328-2.33-.929-2.506,0 .545.586 2.21,1.5 2.506,0zm3.34.416c1.229-.085 1.662,2.756 2.923,1.254-.62-.354-.604-1.346-.835-2.088-1.037-.063-1.732.216-2.088.834zm-11.693.836c1.404.291 1.368-.858 2.087-1.252-1.064.048-2.148.078-2.087,1.252zm1.253,1.671c1.83-.119 4.33.432 4.593-1.252-1.218-1.741-3.918-.058-4.593,1.252zm7.1-.836c.998-.253 3.03.525 3.341-.417-.776-.725-2.993-.538-3.341.417zm-12.111.836h3.341c.226-2.094-3.374-1.363-3.341,0z" fill-rule="evenodd"/> <path d="m249.312,131.689c.42,1.808 1.134,3.32 1.253,5.429-2.385-.678-2.203-3.922-2.923-6.265-5.499-3.293-9.525-7.006-17.541-7.518-15.951-1.016-33.174,5.75-45.939,8.771 .455-2.313 3.953-3.054 6.266-3.757 8.969-2.731 18.818-5.948 29.233-7.1 5.829-.646 10.357-.35 15.452.416 4.241.639 6.741,1.987 10.022,3.759 1.66-.42-1.837-1.846.418-1.671 1.988-.455 1.704,1.36 1.671,2.925 5.433,2.902 11.89,8.954 14.199,15.868 1.188,3.557 2.845,8.174 2.088,14.2-.522,4.168-2.992,5.995-4.177,10.022-2.771,2.104-4.985,6.982-9.604,5.848 .201-1.6 2.112-1.815 2.923-2.505 .755-.645 1.908-1.71 2.507-2.507 7.842-10.461 2.919-28.309-5.012-35.499-.338-.077-.416-.417-.836-.416z" fill-rule="evenodd"/> <path d="m232.608,133.776c.073,2.581-1.076,3.937-2.925,4.595-.241-1.635.36-2.425.836-3.341-6.087-2.834-16.263-3.769-24.64-2.924-.094.573-.344,1.72-1.253,2.506 4.522.558 10.378,1.254 15.452,1.67 3.614.296 6.5-.635 8.771,1.252-1.025,2.097-6.325.358-7.937,0-6.021-1.339-12.714.525-18.374-2.088 .246-1.424.924-2.417 2.088-2.923 .165-1.001-1.903.233-1.254-1.252 2.174-1.623 5.212-.868 7.936-.836 7.644.092 15.828.15 21.3,3.341z" fill-rule="evenodd"/> <path d="m45.093,130.436c.873-.177 1.105.287 1.67.418-.356,2.06-2.901,5.198-1.253,7.1 .677.782 1.803,3.941 2.089,5.848-1.006-.172-.908.763-2.089.416-1.3-5.59-3.036-8.299-.417-13.782z" fill-rule="evenodd"/> <path d="m123.19,133.36c-1.062,1.288-4.014,1.229-5.847,1.67-3.528.848-7.907,2.012-11.693,3.341-1.66.582-2.933,1.861-4.595,2.505-3.701,1.436-8.332,1.883-11.275,4.177-2.784,2.17-8.007,5.171-10.024,7.935-.386.53-3.259,5.759-3.341,6.684-.143,1.653 1.303,3.359 1.254,5.011-10.104-3.456 1.333-15.919 5.846-19.211 1.72-1.254 4.373-2.263 5.847-2.506 6.375-5.457 17.337-6.328 25.475-10.022 2.728.542 6.732-1.768 8.353.416z" fill-rule="evenodd"/> <path d="m118.595,138.371c1.954.412 2.214,2.519 2.506,4.593-.318.658-1.326.624-1.254,1.67-4.42,1.938-8.96,4.488-13.781,6.682-3.768,1.717-5.482,3.382-9.604,5.012-2.354.931-2.636.715-5.011.418 .131-1.802-1.582-1.759-1.254-3.759 .675.119.721-.395 1.254-.416 1.514.017.846,2.216 1.67,2.922 4.136-.795 7.404-3.645 10.858-5.429 .658-.34 1.722-.041 2.505-.418 1.368-.658 3.735-2.301 5.011-3.759 3.747-.011 5.452-2.067 7.936-3.341-.265-1.405-1.2-2.141-.836-4.175z" fill-rule="evenodd"/> <path d="m221.75,140.876c-2.004,2.716-5.342,2.36-8.353,3.759-7.614,3.536-12.139,13.301-7.1,22.134 1.126.962 3.244.933 4.593,1.672-.443,2.024-3.813,1.48-4.593,1.253-2.56-.75-3.749-6.438-5.848-7.1-.812-4.459-.192-7.983 2.089-11.693 3.484-5.67 11.019-10.146 19.212-10.025z" fill-rule="evenodd"/> <path d="m47.599,144.635c1.608.342 2.173,1.725 3.341,2.507-1.005,1.825-5.059-.402-3.341-2.507z" fill-rule="evenodd"/> <path d="m78.503,147.142c-2.119.668-4.918-1.722-7.1,0 .17,1.701-.919,2.143-1.252,3.341-6.804-2.898 7.04-9.722 8.352-3.341z" fill-rule="evenodd"/> <path d="m179.986,146.306c-3.38,1.75-7.552.562-10.858,1.254-3.232.675-8.689,3.146-11.693,5.012-1.679,1.041-3.054,2.437-4.177,3.757-1.315-.2-.945,1.283-2.505.836-1.002,1.644-2.982,2.31-3.759,4.177-5.448,3.8-10.51,7.804-17.123,11.275-1.076.564-2.299,1.084-3.341,1.67-2.693,1.515-6.732,2.796-10.44,4.178-2.284.85-4.585,2.661-7.1,1.67-.177-1.847 2.286-1.648 3.341-2.089 3.115-1.301 7.209-3.266 10.859-4.593 12.091-6.425 21.179-15.852 32.156-23.388 3.025.326 4.694-2.07 6.682-2.923 1.348-.58 2.748.156 3.759-1.254 2.046.117 4.826-.682 7.518-.835 2.229-.127 5.813-.858 6.681,1.253z" fill-rule="evenodd"/> <path d="m196.691,158.416c-2.243.427-3.822-2.26-6.264-3.341-1.125-.497-2.7-.358-4.177-.834-2.388-.771-5.045-2.182-8.771-2.507-4.466-.389-11.022.362-14.2,0 .529-2.432 4.787-1.923 7.1-2.088 4.087-.289 9.161-.316 13.365.418 6.022,1.052 12.511,3.81 12.947,8.352z" fill-rule="evenodd"/> <path d="m121.1 150.48c6.189 2.897-0.991 8.406-5.011 8.771-2.942 1.959-9.929 5.21-15.036 7.1-4.381 1.621-8.118 1.942-7.934-2.507 1.563-1.259 1.728 1.674 3.341 1.671 9.802-2.447 18.1-6.4 25.475-11.275 0.464-1.998-1.301-1.763-0.835-3.76z" fill-rule="evenodd"/> <path d="m234.695,189.738c-1.829.158-2.146-1.192-3.758-1.252-3.874.149-7.706-.3-10.858.418-2.192.498-3.735,2.244-5.43,1.67-1.284-.248-1.001-2.061-1.67-2.924-4.456-6.642 1.15-15.92 2.923-21.716 4.107-3.829 7.256-8.614 11.694-12.111 4.505-.075 8.61-2.197 12.945-1.252 3.499.761 4.968,4.132 7.519,5.429 2.664,12.114-2.682,17.697-7.101,24.223-.625.923-.779,2.358-1.252,2.923-1.524,1.814-3.979,2.64-5.012,4.592zm-15.452-20.881c3.763-2.189 11.688-5.299 17.958-3.341 2.854.89 4.072,3.995 6.682,4.177-.033-2.262.982-3.472.837-5.848-6.71-6.887-25.036-4.525-25.477,5.012zm2.924,7.518c-3.12.907-7.316,2.712-6.684,5.848 2.102-1.152 4.602-1.102 7.518-1.671 1.354-.265 2.158-1.174 3.341-1.254 4.656-.312 7.935,1.704 10.44,4.595 .656-2.269 3.007-2.841 2.925-5.848-3.371-5.201-13.198-2.933-17.54-1.67z" fill-rule="evenodd"/> <path d="m127.365,160.505c-5.066,9.831-17.771,12.018-27.563,17.122-2.031-.482-3.944-3.282-2.923-5.429 2.636-.319.61,1.424 1.67,2.506 6.541-1.532 11.686-4.462 16.704-7.518 2.162-.158 4.578-1.779 6.264-2.923 1.57-1.063 4.256-2.317 3.342-4.593-5.28,3.488-11.482,4.644-16.288,9.187-3.334.29-6.466,2.995-9.188,2.506-.391-2.28 3.614-1.959 5.011-2.506 2.78-1.09 6.386-3.648 10.024-5.43 4.145-2.027 7.881-3.642 10.44-6.264 1.933.018 1.562,2.338 2.507,3.342z" fill-rule="evenodd"/> <path d="m230.101,217.72c17.534,1.171 30.661-5.478 38.84-15.034 1.887-4.888 5.724-12.146.835-16.706-4.388-4.092-18.74-.666-25.475,1.671-6.599,2.29-11.858,6.474-15.452,7.518 .166-2.746 3.938-3.726 7.1-5.43 4.814-2.595 9.132-5.237 15.87-7.1 10.303-2.848 24.045-4.273 24.639,8.771 .124,2.724-.459,6.5-1.253,8.77-.271.773-1.899,1.059-.834,2.089-2.378,1.521-3.813,3.983-5.43,6.264-3.456.819-5.336,4.122-8.353,5.848-4.358,2.491-9.635,3.185-14.199,5.847-6.089-.981-14.362,2.722-16.288-2.508z" fill-rule="evenodd"/> <path d="m263.93,186.815c2.931,4.353 3.69,8.886 2.086,14.618-3.61,2.345-6.622.27-8.77-2.089-.045-3.715-1.288-6.229-1.671-9.606 2.818-1.507 3.644-4.238 8.355-2.923zm0,12.112c.046-.51.124-.989.834-.836-.586-3.311-1.453-6.342-2.089-9.604h-2.923c1.515,3.357.995,8.748 4.178,10.44z" fill-rule="evenodd"/> <path d="m232.19,198.091c-.354-1.744.812-1.972.834-3.341 2.116.818 1.147-.587 2.925-.835 .574.539.413,1.813.416,2.923 4.739-.829 9.361-1.773 12.113-4.593-.146-2.665-3.049-1.286-4.596-.836-.386-2.789 3.25-2.709 5.012-2.087 2.114,2.923.473,5.768-1.252,7.934-5.623.424-11.234,5.358-15.452.835z" fill-rule="evenodd"/> <path d="m216.32,196.838c-5.033-1.068-10.119-3.918-16.704-2.088-.344,1.607-1.8,2.101-2.507,3.341-.384,4.422.664,7.41 2.923,9.188 .714-1.382-1.018-7.064.418-7.935 1.697-2.255 4.528-2.953 7.1-.836v3.341c1.574-1.222 4.376-3.443 8.771-2.087 .627,2.776-1.07,7.095-.418,10.022-3.818.605-6.438,1.178-8.353-1.67-1.479,1.05-4.289.981-6.264.416 1.13,2.909 6.838,4.854 9.187,7.936 4.167.909 8.16,1.251 11.695.835-1.414,5.237-13.884,2.768-17.124,0-1.297.278-.614-1.113-1.253-1.671-1.237-1.077-3.562-1.067-5.011-2.087-2.468-3.477-8.913-11.423-4.594-18.376 .856-1.378 2.734-1.26 3.341-2.923 2.894-.002 6.272-1.021 9.188-.836 4.102.263 8.85,1.79 9.605,5.43zm-12.947,9.188c1.008-.172.909.763 2.089.418-.013-2.519.712-4.299.418-7.1-1.006.17-.908-.763-2.089-.418-.556,2.108.467,4.696-.418,7.1zm8.353-4.592c.268,1.876-1.14,3.564 0,5.011 2.748-.035 2.112-3.456 2.923-5.43-1.318-.203-1.475.753-2.923.419zm-3.759,5.426c0-.005-.848.741 0,.837 .966-3.439-.099-4.694 0-.837zm-.418-.834c.114-.569-.258-1.631-.418-.836-.113.57.259,1.631.418.836zm-5.01,0c-1.408-1.267-1.267,1.543 0,0z" fill-rule="evenodd"/> <path d="m238.038,210.62c3.543-.519 7.206-1.414 10.022-2.923 .926-.497 3.144-.7 2.505-2.507-3.393-1.757-8.8,2.294-12.527,2.925 .12-3.113 4.102-3.039 6.264-3.759 2.438-.812 5.002-2.172 7.934-1.671 4.429,9.157-8.923,10.266-16.286,11.693-1.887-1.956-1.115-5.374.416-7.1 1.7-.028 1.797,1.544 1.672,3.342z" fill-rule="evenodd"/> <path d="m196.691,48.999c4.685-.885 6.417-8.338 6.682-15.034 8.339,2.456 19.495-.506 25.895-1.252-.26,3.081-4.826,3.215-7.936,3.757-5.136.897-10.103,1.704-15.034.418-1.108,2.792-1.146,6.651-2.089,9.606-4.994,6.34-19.014,10.766-25.058,2.923-.417.31.637,2.682.836,3.759 .275,1.25.892-.399 1.67,0-.262,1.859 1.574,2.486 2.505,3.759 .802,1.094 1.201,2.708 2.089,3.757 2.958,3.499 7.828,4.038 11.276,7.1 7.117,1.798 16.448,3.849 21.3-1.252-2.984.395-9.546,3.385-15.87,1.67-1.496-.404-4.295-1.759-4.177-3.341 4.386.238 7.857,2.077 11.692,1.67 6.454-.683 10.205-5.691 14.2-8.77 1.415-4.483 4.79-8.483 5.429-14.2 .296-2.641-.773-6.096.836-8.77 2.757,1.189 2.845,7.113 2.087,10.44 2.782,1.589 6.098.566 8.771,1.254 3.475.893 6.515,3.756 9.606,5.428-.296,1.55.714,1.793.418,3.343 1.816.007 2.328-1.292 4.593-.836 .372,1.021.974,1.811.835,3.341 8.643,5.196 23.558,4.828 33.828,8.77 3.028,1.163 6.248,2.121 8.771,3.341 .263.127-.085.702.418.836 2.021.539 5.006,2.751 7.1,3.759 4.228,2.032 9.072,3.884 12.945,6.682 1.686.403 3.91.267 3.759,2.505-2.236,1.266-4.415.872-6.264,2.088-2.799,1.84-4.331,5.705-4.595,10.022-.245,1.778 2.255.809 1.671,2.925-6.844,2.661-11.969-2.32-19.211-3.759-2.263-.45-5.133.367-6.264-1.254-6.725.489-11.803-.793-16.288-2.923-.362-.171-.647-1.169-.835-1.252-.892-.396-2.053-.447-2.923-.836-1.546-.69-2.93-.991-5.013-2.087-2.048.272-3.915,1.163-7.1.834-6.165-.636-10.284-5.853-19.628-4.177-5.835,1.046-6.661,6.667-9.605,11.276-2.55,3.992-6.144,6.799-10.441,9.605-1.484,3.667-1.498,8.933-4.175,12.529-.595.797-2.182,1.521-3.341,2.506-3.435,2.919-10.394,8.145-16.288,5.43-3.083-.005-3.672,3.069-6.264,3.759-4.457,1.186-8.502-1.944-12.947-2.506-1.065-.134-2.294.402-3.341.418-10.668.16-19.019-5.749-23.804-11.695-4.989,1.023-11.044,1.201-14.618-1.252-3.62,2.189-8.114,6.981-7.1,12.529 .537,2.936 3.273,3.459 4.177,6.264-3.837.996-5.876-3.268-8.354-5.011-.277-2.505.379-4.075.418-6.264 2.967-2.602 4.395-6.743 8.77-7.936-1.371-2.248-3.618-3.62-6.682-4.175-4.529-5.076-10.945-8.267-13.364-15.452-.889-.644-1.555-1.507-2.506-2.088 .133-1.387.063-2.569-.834-2.923 .33-4.539 3.455-8.305 6.264-12.111 .308-.418 1.733-1.292 2.923-1.254 .449-1.083 1.817-1.246 2.089-2.504 6.787-2.819 13.304-5.909 20.047-8.771 .291-2.1-.709-2.911-.418-5.011 1.246-1.042 2.671.27 3.759-.418-.296-4.988 1.357-7.171 4.175-9.606 1.342-1.159 1.738-1.553 3.341-2.505 .324-.192.644-1.155.836-1.252 1.859-.941 7.096-2.19 10.44-2.506 3.628-.343 7.713.255 11.693,0 .302,1.278-.721,1.229-.418,2.506 2.595-1.184 3.815.338 5.013,1.67-.397-2.042-1.562-8.449-.418-12.111 1.927.996 4.316,1.529 6.682,2.087 1.203-.049.726-1.781 2.088-1.67-2.402-1.494-6.194-1.603-8.77-2.923-1.518-10.213 2.833-16.504 6.682-22.552 1.38.012 1.021,1.762 2.088,2.088 1.418.102 2.483,1.254 4.176,1.67 3.309.812 8.036-.25 9.606,2.505-4.072-.01-7.693.785-11.277-.417-1.988-.668-3.821-3.251-5.011-.836 3.296,3.526 9.015,4.627 13.781,6.682-1.538,1.973-6.366.332-8.771.418-1.42-1.781-3.543-2.86-5.846-3.759-.696.557-.648,1.857-1.254,2.506 3.419,3.263 9.317,4.046 15.454,4.593 .327,2.046-2.488,1.189-3.76,1.252-4.767.236-9.297-.894-12.111-2.505 1.094,3.498 6.257,2.932 8.77,5.012 1.396.413 4.681-1.062 4.176,1.252-.066,1.144-1.922.427-2.923.418-1.127-.01-2.643.131-3.759,0-3.176-.374-6.529-2.772-7.935-1.252 .945,1.619 2.831.833 4.176,1.252 5.886,1.84 11.108,5.183 15.035,8.77 1.102-1.543-.269-5.557.835-7.1 5.849,3.449 1.388,14.189-2.086,17.124zm-5.012-12.946c-1.275.301-1.521-.428-2.505-.418-.609,2.111 2.337,1.193 2.505.418zm-4.593,3.758c-.121-.728 1.334-2.242-.418-2.087 .228.606-.488,2.158.418,2.087zm-4.176-.835c.324-1.465-3.445-.974-3.759-.418 1.374.017 2.079.705 3.759.418zm12.528,3.341c-2.207,1.081-5.346-.493-7.934-.418 .314,1.645 2.484.647 3.757.836 1.844.272 3.754.804 5.014,1.252 .756-1.054 1.431-2.187 1.252-4.177-2.564-1.492-5.587.039-8.353-1.252 1.244,2.097 5.761.921 6.264,3.759zm9.605,55.544c1.344.466.168,3.453 1.672,3.759 7.001-1.212 12.274-4.151 17.538-7.1 3.115-3.555 4.396-9.683 8.771-12.111 3.106-1.723 6.367-1.193 10.858-1.67-3.884-6.521 3.432-14.783 7.101-17.958 1.431-1.237 3.259-2.189 3.759-3.759-1.496-.978-2.976,1.028-4.594,1.254-1.006-1.084-1.706-2.473-1.67-4.595-1.396.419-1.37-.58-1.254-1.671-2.772-.569-3.976-2.705-5.846-4.175-3.545.064-5.019-1.944-9.188-1.254-1.623,2.833.17,9.08-2.923,10.441 1.483,1.837-1.159,2.708 0,4.595-4.738,9.183-15.585,15.972-29.651,13.364-3.681-.684-7.312-3.207-11.277-3.759-8.287-7.581-15.819-15.919-18.375-29.233-1.662.705-4.406.328-6.684.418 3.552,8.767 7.005,18.99 12.947,25.057 1.966,2.009 5.466,5.158 7.518,6.266 1.957,1.057 4.735,1.216 7.1,2.088 3.033,1.118 5.752,2.783 8.353,3.341 3.206.687 7.681-.032 11.692,0 4.176.032 5.729-1.222 10.022-2.088 7.311-4.667 13.622-11.078 17.959-18.793 1.366-2.43.505-5.785 3.341-7.518 1.646,1.638 2.434,2.872 4.177,2.506-1.653,12.825-9.725,19.229-15.87,27.563-3.132,1.043-5.4,2.952-7.936,4.593-5.52,1.735-11.836,3.407-17.957,3.341-3.067-1.668-9.659-2.031-12.947-2.088 5.184,2.334 8.438,6.596 13.364,9.186zm-14.198-52.621c.661.87 3.315-.253 2.923,1.67-1.599.151-1.934.289-2.923,1.67-3.71.78-6.569-1.495-9.188-.416 3.21,4.194 13.002,2.488 13.781-2.925-5.833.046-10.269-1.918-15.034-.834 4.134.016 7.342,3.373 10.441.835zm-43.016,5.847c.272,5.071 2.776,9.967 4.595,14.618 1.953,4.996 3.241,10.747 7.934,12.111 1.446-2.775 1.485-6.298 1.252-8.771 4.396,2.33 1.072,10.492-.416,13.364 4.558.336 9.553-.45 13.781,0 3.871.413 6.884,2.24 9.604,2.088-3.749-.858-6.726-3.676-9.187-5.429-.989-.706-2.435-.952-3.342-1.67-4.845-3.841-7.892-9.98-10.857-16.288-2.544-5.407-4.401-11.768-3.759-15.034 1.545,1.917 2.789-.404 4.593,1.252 .01-.984-.719-1.229-.418-2.505-6.169.512-9.605,3.758-13.78,6.264zm12.528-.836c.117-1.091-.153-1.796-1.252-1.67-.071,1.046.641,1.308 1.252,1.67zm62.226,14.618c.668-.863 1.749-1.315 2.089-2.506-1,.278-3.255,1.445-2.089,2.506zm37.587-.835c-2.248,2.066-3.649,4.979-6.265,6.682-1.023,3.71-2.608,6.857-2.505,11.693 2.136,1.4 5.539,3.568 9.188,2.088 .444-1.558-1.566-.661-1.254-2.088-.321-9.649 4.955-13.698 10.441-17.541-3.789.281-5.939-2.256-9.605-.834zm-110.671,16.287c-2.625-4.753-6.114-8.641-7.1-15.034-.091-.326-.348-.486-.834-.418-4.08,4.83-12.896,4.921-17.958,8.77 8.76-.183 22.542.214 21.299,10.023 3.195,1.024 7.327,4.112 9.606.418-1.312-1.613-3.378-2.47-5.013-3.759zm126.542-10.441c-2.97,4.547-7.859,7.175-7.1,15.452 3.844,1.864 7.569,3.846 11.693,5.429-2.688-10.264 4.115-17.358 11.692-20.045-5.464-1.643-11.573-5.13-16.285-.836zm25.056,5.848c-4.115.161-9.334,6.056-10.856,9.604-.897,2.09-1.652,3.813-1.255,6.265 5.083-.486 9.193,2.218 12.529,2.087-9.052-3.288 2.097-13.844 5.43-16.286-2.31.186-3.768-1.752-5.848-1.67zm-164.544,6.681c2.588-.35 5.293,1.375 7.1.418-.619-.078-.384-1.009-.418-1.67-2.891.663-2.59-1.864-5.011-1.67 .948,2.478-1.552,1.51-1.671,2.922zm-23.803,2.923c-.342,1.749-.932,3.246-2.089,4.177-.001,1.533 1.461,1.601 2.089,2.505 2.75,2.819 4.25,6.887 7.934,8.77 .302-1.276-.721-1.227-.418-2.504 3.708-5.062 7.706-9.836 13.365-12.947-3.576-.496-7.056,3.033-9.188,1.254 1.81-3.342 7.856-2.447 11.275-4.177-8.106-2.37-17.521-.019-22.968,2.922zm192.524,10.44c2.109-.008 4.066,2.323 5.848,1.254-3.854-6.155 2.697-11.43 5.846-14.618-9.325-2.546-9.83,7.086-11.694,13.364zm-112.342-4.175c-1.237-.667-2.502-1.49-3.758-2.088-2.552-1.215-5.361-3.069-7.518-3.759-6.175-1.975-12.854-.525-20.047-.834-1.441,1.062-3.59,1.421-6.264,1.252 .226,1.479-1.479,1.026-1.252,2.505 1.252,1.745 3.271,2.802 5.011,4.177 1.73,1.366 3.222,3.067 5.012,4.177 2.308,1.431 5.118,1.813 7.1,3.757 2.993-5.54 10.181-.54 14.199-4.593 .301-1.648.665-3.233 1.253-4.593 6.22-2.192 11.34,4.68 7.518,10.023 3.596-.024 5.299-1.939 5.846-5.011-2.257-2.296-4.094-3.392-7.1-5.013zm-57.215-6.265c-.099-.641-.687-.061-.834.418 2.014.354 3.591,1.142 4.175,2.923 1.584.034 3.368-1.896 4.595-.834-.153,2.991-3.361,2.299-5.011,3.341-2.345,1.479-4.027,4.197-5.848,7.1-2.241,3.575-3.086,5.731-3.341,10.022 3.625,1.521 8.068,6.225 12.529,4.177-1.412.158-1.783-.724-2.507-1.254-1.383-10.492 6.49-15.182 12.947-19.211-3.594-4.2-9.136-6.454-16.705-6.682zm56.38,12.947c.192-2.145-2.912-6.259-4.177-3.759 .174.94 2.291-.062 2.089,1.252-.253,1 .525,3.03-.418,3.341-1.354.243-1.942-.284-2.923-.416-.619.493-.649,1.577-1.253,2.086-2.584,1.557-5.642-.271-8.352,0-2.804.282-4.087,2.252-6.265,3.341-.984.01-1.229-.719-2.505-.417-.765,1.494-1.851,3.74-2.506,6.264-.51,1.961-2.184,5.492.418,6.682 .284-1.29-1.944-2.188-.418-3.341 1.786-.116 2.129,1.213 2.923,2.088-.335,1.448.622,1.606.418,2.923 4.179,4.377 10.748,8.376 18.792,7.518 .537-2.068-3.46.397-2.923-1.67 3.681-1.052 8.929-.539 10.44-3.759-1.934-.138-5.479,2.143-6.682,0 1.379-1.857 3.856-.985 5.846-1.67 .921-.316 2.305-1.427 3.343-2.088 3.144-2 4.789-4.124 5.012-7.516-2.948,2.206-6.684,5.842-11.277,5.011 .24-2.389 3.044-2.51 4.596-3.341 1.782-.957 3.224-2.389 5.011-2.924 .447-2.058 1.846-3.164 2.923-4.593-.023-2.204.521-4.974-2.088-4.593-.558,2.086-2.211,3.077-3.341,4.593-1.953,1.047-9.955,1.357-10.859.418 .311-2.057 3.934-2.714 4.176-5.43zm-34.662-1.67c-3.57,4.365-7.939,7.931-8.77,15.034 1.688.541 3.562.894 5.847.836 .083-7.293 5.669-9.086 8.769-13.365-1.71-1.073-3.513-2.055-5.846-2.505zm48.026,12.529c-.238,3.246-3.354,5.829-2.923,8.352 4.127-2.554 10.089-3.276 10.858-9.188-2.293-.92-5.002,1.033-7.935.836zm-62.644,3.757c1.777.247 2.924-.138 2.506-2.087-1.867-.338-2.319.743-2.506,2.087zm27.147,10.024c-2.481-.444-2.418-3.431-4.177-4.595-4.94.343-8.828-3.976-15.034-3.759 4.328,4.583 10.488,9.558 19.211,8.354z" fill-rule="evenodd"/> <path d="m332.837,88.673c1.212-.318 1.084-1.978 2.923-1.67-3.419,6.716 2.126,13.353 8.771,10.024-1.425-.943-3.366-1.366-4.176-2.925-.644-2.591 1.521-2.375 1.671-4.175-1.562-2.894.195-9.106-2.507-10.858-8.332-1.65-8.525,8.823-15.034,6.264-.066-1.596 1.705-1.356 2.505-2.088 2.938-3.165 8.825-9.504 14.2-5.012 5.911-4.819 15.037.055 18.376,5.848 .314.545.19,1.305.418,1.67 1.685,2.721 1.861,7.873 1.669,12.529-.17,1.638-2.333,1.285-2.505,2.923-.613,1.589 1.866.082 1.253,1.67-1.161-.517-1.161,1.351 0,.836-.351,1.181-1.641,1.42-2.505,2.088-.177,1.706 1.374,1.688.834,3.757-3.049,3.065-7.324-.173-8.353-2.923-5.725-.017-5.564,5.851-9.188,7.934h-5.846c-5.889-3.02-10.412-7.407-13.782-12.945-.732-.382-2.085-.145-2.506-.836v-1.67c6.911,1.491 8.665,7.567 13.781,10.859 1.688,1.086 3.516,2.784 6.266,2.506 4.317-.437 4.09-7.183 8.352-7.936 3.538-.624 5.848,2.504 8.353,4.177 .347-3.414-4.646-5.095-6.682-7.518-1.183-.072-2.865.36-2.925-.834 .797-2.588 3.729-.467 4.595,0 1.528.822 4.093,3.563 6.264,3.341 .39-.306.635-.76.837-1.254-1.845-3.028-6.305-3.439-8.353-6.264-1.006.388.252,3.037-1.672,2.507 .616-1.871-1.223-1.283-.835-2.925-.535,4.777-9.366,5.431-12.11,2.088-1.489,1.096-6.086,4.553-7.937,1.252-.193-1.864 3.263-.078 3.759-1.252 2.471-2.795 2.923-8.082 0-10.44-.242-2.192 1.097-2.802 2.925-2.923-.673,1.775-.567,2.71-.836,4.175zm24.222-2.923c-2.902-4.688-6.773-9.358-13.781-6.264 1.146,4.297-.428,11.934 3.759,14.198 1.127-1.174-.74-1.713-.418-3.341 2.514-.921-.345-4.736 2.089-5.428 .425.547.409,1.538.836,2.087 4.037,1.808 4.58,7.113 10.022,7.518 1.947-3.296-.496-5.522-2.507-8.77zm1.253,12.947c.591-.104 2.304-1.037 1.672-2.088-5.32,1-8.408-3.842-10.858-7.1-1.849,3.495 7.109,9.552 9.186,9.188zm-14.198-4.595c-.79-.046-.29-1.38-1.254-1.252-.572,1.189.75,2.511 1.254,1.252z" fill-rule="evenodd"/> <path d="m72.239,127.513c1.646,2.693 2.625,4.669 2.505,8.352 3.295,1.161 6.608,2.303 7.936,5.429-.676,1.628-2.442-.363-3.341-.834-2.88-1.511-5.373-2.671-9.606-.836-2.766,1.2-7.985,6.155-9.604,10.023-.394.941-.37,2.434-.836,3.759-2.002,5.703-4.583,12.806-3.341,21.717 .719,5.151 3.725,8.958 5.429,12.528 4.59,2.544 7.968,6.666 16.288,5.847 2.632-.26 5.997-.938 8.352-1.67 3.205-.998 5.392-3.433 7.934-3.341-.042,4.133-5.215,3.137-6.682,5.847-6.671,1.397-12.031,3.365-17.958,1.671-2.559-.732-5.559-2.357-7.934-4.177-3.249-2.49-5.174-4.707-7.1-8.771-1.195-2.521-1.988-3.983-2.088-7.518-2.136.788-5.574.271-8.353.418-2.5-2.595-6.417-4.296-8.352-7.517-.919-1.53-.072-4.088-2.505-4.595 1.019-1.65-.946-3.354-1.671-4.593-.499-6.22-1.923-14.545.417-20.882 .606-1.64 2.256-3.109 2.924-4.595 .88-1.956 1.153-3.718 1.67-5.428 1.708-.797 3.656-1.356 4.176-3.343 .507-2.316-1.083-2.535-1.67-3.757 1.089-6.288 2.14-13.894 6.265-17.541 3.157-2.792 8.144-2.809 11.694-3.759 7.239.44 15.073,4.85 14.616,12.945 2.031,3.12 3.973,6.33 3.341,12.111-.584,1.092-1.469,1.876-2.506,2.51zm-21.299-23.805c-2.114,2.963-4.654,7.023-5.43,11.693-.406,2.447.426,3.973 0,5.848-.509,2.24-2.833,2.838-2.087,5.846-.659.734-1.917.867-2.088,2.088 .782.795.046,1.05 0,2.088-4.634,10.145-5.551,27.38-.417,37.586 2.762,2.012 5.778,5.39 10.858,3.759 .148-2.631-.203-4.806 0-7.1 .47-5.319 3.218-9.735 2.924-14.2-4.021-1.151-7.202,1.922-10.441,1.255 .641-2.041 3.678-2.672 6.265-2.925 1.412-.138 2.686.102 4.176,0-.45-5.175-3.982-9.37-5.011-13.782-2.371-10.159 7.21-17.874 17.957-17.123 1.546.065 2.35,2.357 3.343,1.67 .875-2.122-2.164-3.587-2.925-5.429-4.744.267-7.533,2.49-12.111,2.925-1.156.652-.892,2.726-3.341,2.086 .557-5.706 8.486-4.041 11.693-7.1 2.077.014 4.585-.408 5.011,1.254-.639-2.032 1.213-1.572 1.254-2.924-3.85-5.593-9.694-9.066-19.63-7.515zm-8.353,17.541c-.708-1.579 1.364-3.766-.418-3.759-.669,1.196-1.48,3.254.418,3.759zm28.4,1.252c.899.352.352,2.153 1.252,2.504 .98-.567 1.292-3.973.418-5.011-.328,1.066-.76,2.028-1.67,2.507zm-14.2,8.77c-.586.457-2.862,4.294-2.924,4.593-.523,2.545.425,6.349 2.506,8.352 2.277-7.049 7.443-11.21 16.288-11.693-.395-1.694-1.941-2.236-2.506-3.759-4.235.076-10.145-.006-13.364,2.507zm-21.717,7.935c.07-.486.66-.452 1.253-.417v-.836c-.439-1.459-2.221,1.305-1.253,1.253zm0,4.176c-.147-1.934.097-3.014-.417-3.759-.812.901-1.349,3.415.417,3.759z" fill-rule="evenodd"/> <path d="m69.314,152.987c.534,1.646-1.142,1.086-1.67,1.67 .284,2.93-2.047,3.242-2.923,5.014-.846,4.606 1.276,7.993.836,10.856-2.245.296-3.569-.329-5.012-.834-.652-1.931-2.027-3.222-2.088-5.012-.19-5.488 5.591-9.201 8.771-12.11 .606.228 2.158-.488 2.086.416zm-7.098,10.441c.055-.549.063-3.021-.418-1.67-.056.549-.062,3.022.418,1.67z" fill-rule="evenodd"/> <path d="m356.641,266.582c-2.241-2.686-5.986.36-7.934,0 1.133-3.122 4.578-5.418 4.177-8.771-2.792-.469-3.373,2.743-4.595,4.177-.619.726-1.727,1.273-2.505,2.089-2.138,2.232-3.319,3.975-6.682,4.593 2.25-4.012 5.472-7.056 6.682-12.11-3.492-.568-3.509,2.338-4.177,4.593-2.697,1.623-4.139,6.716-6.682,7.1 .394-.962.026-1.346.418-2.923-1.708-.037-2.197,1.144-2.925,2.089-.685-.847-1.396-1.667-2.923-1.671-.937.456-.734,2.05-1.671,2.505-.462-1.068-2.243-.818-3.759-.834-.265-2.239-1.975-3.037-2.505-5.012-1.288-1.357-.792-4.499-3.341-4.595-2.894,3.306 2.257,9.501-.836,11.693-2.77-.292-2.848-3.276-6.264-2.923-1.286.763.838,2.342-.418,2.923-1.926-1.594-3.024-4.133-3.759-7.517-.627-2.889.363-7.71-3.341-7.936-.77,4.682 1.92,11.088 0,16.288-3.543-1.05-1.669-7.52-4.595-9.188-2.087,1.788.09,7.197-.835,9.188-1.263-.687-2.246-1.651-4.593-1.252-1.222-.589-1.443-2.179-3.759-1.671-.982.409-.693,2.09-2.089,2.087-2.037-1.516-.873-4.321-.834-6.682 .033-2.192-.668-5.064-.837-7.517-.156-2.265 1.358-5.725-2.088-4.595 .646,8.165-2.143,15.117-5.43,17.958 .456-4.714 4.767-9.495 2.925-13.781-1.356.316-1.814,1.526-1.671,3.341-3.132,3.77-5.376,11.017-10.858,11.693-1.38.172-2.521-1.639-4.177-.418-1.077-1.428-.703-4.307-3.341-4.176-.705.826-.455,2.607-.835,3.76-2.321.97-3.158.868-5.847,1.252-.744-1.483-1.203-3.253-2.923-3.759-1.594.494-1.331,2.847-2.925,3.341-.827-.285.262-2.488-1.252-2.089-2.15-.338-1.701,1.919-3.341,2.089-2.357-2.234-5.943-1.722-9.606-.834-.002-1.117 1.32-.908 1.254-2.089-1.594-1.504-4.293,1.101-5.012.418 .34-3.279 2.264-4.974 4.176-6.684 .184-3.091 2.948-4.28 4.177-5.846 .763-.972.935-2.321 1.67-3.341 .72-.997 2.979-1.441 2.089-3.341-3.855.168-5.212,4.602-7.518,7.1-.475.512-1.607.705-2.089,1.253-1.931,2.197-2.923,4.848-5.011,6.682-.831.729-2.417.863-3.341,1.67-1.953,1.705-3.136,4.7-5.848,4.178 1.524-1.496 3.392-4.094 5.011-6.266 1.45-1.939 4.631-4.789 1.671-7.1-5.883,5.394-9.817,12.734-18.375,15.451-1.021-.368-.452-2.331-2.088-2.086-2.286,1.334-4.268,2.97-7.101,3.759 1.382-1.409 2.466-3.086 3.76-4.596 1.227-1.431 3.463-2.717 3.759-5.011-5.297-.946-5.646,6.58-10.022,7.934-.589-1.194 1.295-2.278-.419-2.086-2.859-1.321-4.347,2.327-7.1,2.504-1.098.124-.328-1.619-1.67-1.252-2.14.646-3.182,2.388-5.848,2.507-.347-.993 2.066-1.946 0-2.089-2.732-1.332-3.992,2.403-6.264,2.923-.156-.957-1.67-.558-2.088-1.252 3.483-3.338 8.031-5.611 9.188-11.277-4.211.941-5.672,4.629-7.936,7.518-3.747,1.543-4.854,5.726-9.604,6.264 .015-1.794 2.219-1.399 1.67-3.759-3.134-1.121-5.198,2.541-7.934,3.759-.989.44-2.614.454-3.341.837-.039-1.292 1.261-1.246 2.505-1.253 .787-.649-.598-1.628.418-2.507 1.813-.354 3.227-2.146 5.43-2.922 1.944-.688 5.793.453 5.429-2.925-7.979.099-13.149,5.226-17.541,7.518-.051-1.722 1.56-1.781 1.252-3.759-3.825-2.578-7.766,3.451-10.858,2.925 1-3.595 3.625-5.565 5.011-8.771-3.04-1.596-4.002.979-5.846,3.341-1.82,2.331-3.329,4.697-6.682,5.012-.063-5.216 6.163-6.361 5.427-10.859-5.297,2.22-6.852,8.183-12.945,9.604-.584-2.195 1.655-3.05.418-4.593-3.179-.534-2.551,2.741-5.013,2.923 1.886-3.125 3.962-6.06 5.429-9.604-4.384-.517-6.755,4.301-10.022,6.264-4.327,1.382-5.812,5.603-11.693,5.429-1.276-.394-1.309-2.032-2.923-2.088-1.276-.301-1.522.428-2.506.418-3.955-.301-2.255-7.742-6.682-6.264-.06,1.199 1.161,3.256 0,4.175-4.17-2.372.144-13.23-4.177-15.452-1.575,3.299-1.674,6.288-1.252,11.277-1.767,3.103-5.259,5.766-10.022,4.593-.963-.127-.464,1.207-1.254,1.253-1.078-.036-.438-1.788-2.087-1.253-1.329.344-.583,2.759-2.506,2.507-3.933-.231-4.422-.668-6.682-2.089-2.878-1.81-3.563-3.906-7.518-3.759-.149,1.798-.926,2.973-1.67,4.178-1.914-1.567-.916-6.045-4.593-5.848-.018,2.069.324,4.5-1.253,5.011-2.229-3.368-5.125-8.521-3.341-13.363-5.161.216-2.232,10.512-2.088,12.529-2.853-.627-.494-6.468-3.758-6.684-2.112,1.568 1.037,5.805-2.506,5.848-1.572-1.584.178-4.05-.834-5.848-1.039-.044-1.293-.781-2.088,0 .551,3.143-2.959,4.858-5.429,6.266-.937-.595-.797-2.266-1.67-2.923-2.736.729-6.171-.009-8.771,2.505 .128-1.265 1.292-1.492.835-3.341-2.39.742-2.546,2.714-5.847,1.67-.618,2.585-3.598,2.806-5.429,4.178 .659-1.308 2.674-2.959 1.67-4.596-2.198.555-3.48,2.978-4.942,4.527-1.555,4.673-3.949,8.957-5.906,13.275 18.778-.045 38.017.139 56.787.992 4.174.188 8.175.545 10.857.834 14.672,1.582 30.474-.924 45.105,0 9.01.569 17.245.367 25.893.418 12.427.073 28.417,1.384 39.256-.418 1.951-.324 4.094.319 6.264.418 7.786.354 17.24-.23 24.641,0 7.742.241 15.661,1.062 23.388,0-1.052,1.8.786.517.834,2.089 2.025.406-.158-2.335.836-2.089 4.374.177 8.521.233 12.529,0 21.417-1.242 45.749.293 63.896-.836 16.203-1.006 34.245-1.093 48.026-2.088v-16.287c-1.629-.657-.859,1.087-1.667,1.255z" fill-rule="evenodd"/> </svg>